<svg width="24" height="24" viewBox="0 0 24 24" fill="none" xmlns="http://www.w3.org/2000/svg">
<path d="M7 16C7 16.5523 7.44771 17 8 17C8.55228 17 9 16.5523 9 16C9 15.4477 8.55228 15 8 15C7.44772 15 7 15.4477 7 16Z" fill="#ABAFD1"/>
<path d="M16 7C15.4477 7 15 7.44771 15 8C15 8.55228 15.4477 9 16 9C16.5523 9 17 8.55228 17 8C17 7.44772 16.5523 7 16 7Z" fill="#ABAFD1"/>
<path fill-rule="evenodd" clip-rule="evenodd" d="M12 24C2.118 24 0 21.882 0 12C0 2.118 2.118 0 12 0C21.882 0 24 2.118 24 12C24 21.882 21.882 24 12 24ZM8 5C7.44772 5 7 5.44772 7 6L7 13.1707C5.83481 13.5825 5 14.6938 5 16C5 17.6569 6.34315 19 8 19C9.65685 19 11 17.6569 11 16C11 14.6938 10.1652 13.5825 9 13.1707V6C9 5.44772 8.55228 5 8 5ZM16 19C15.4477 19 15 18.5523 15 18V10.8293C13.8348 10.4175 13 9.30622 13 8C13 6.34315 14.3431 5 16 5C17.6569 5 19 6.34315 19 8C19 9.30622 18.1652 10.4175 17 10.8293V18C17 18.5523 16.5523 19 16 19Z" fill="#ABAFD1"/>
</svg>
