<svg width="20" height="20" viewBox="0 0 20 20" fill="none" xmlns="http://www.w3.org/2000/svg">
<path fill-rule="evenodd" clip-rule="evenodd" d="M1.17601 14.709L1.12865e-05 20L5.29101 18.824C6.73963 19.5985 8.35736 20.0025 10 20C15.523 20 20 15.523 20 10C20 4.477 15.523 0 10 0C4.47701 0 1.12865e-05 4.477 1.12865e-05 10C-0.00246185 11.6426 0.401543 13.2604 1.17601 14.709ZM1.84404 18.156L4.98725 17.4573L5.29101 18.824L5.95108 17.5894C7.19599 18.2549 8.58624 18.6021 9.9979 18.6L10 18.6C14.7498 18.6 18.6 14.7498 18.6 10C18.6 5.2502 14.7498 1.4 10 1.4C5.25021 1.4 1.40001 5.2502 1.40001 10V10.0021C1.39788 11.4138 1.74508 12.804 2.41064 14.0489L2.65521 14.5064L1.84404 18.156Z" fill="#ABAFD1"/>
<path fill-rule="evenodd" clip-rule="evenodd" d="M13 9.5C13 8.67157 13.6716 8 14.5 8C15.3284 8 16 8.67157 16 9.5C16 10.3284 15.3284 11 14.5 11C13.6716 11 13 10.3284 13 9.5ZM14.5 10C14.7761 10 15 9.77614 15 9.5C15 9.22386 14.7761 9 14.5 9C14.2239 9 14 9.22386 14 9.5C14 9.77614 14.2239 10 14.5 10Z" fill="#ABAFD1"/>
<path fill-rule="evenodd" clip-rule="evenodd" d="M9 9.5C9 8.67157 9.67157 8 10.5 8C11.3284 8 12 8.67157 12 9.5C12 10.3284 11.3284 11 10.5 11C9.67157 11 9 10.3284 9 9.5ZM10.5 10C10.7761 10 11 9.77614 11 9.5C11 9.22386 10.7761 9 10.5 9C10.2239 9 10 9.22386 10 9.5C10 9.77614 10.2239 10 10.5 10Z" fill="#ABAFD1"/>
<path fill-rule="evenodd" clip-rule="evenodd" d="M5 9.5C5 8.67157 5.67157 8 6.5 8C7.32843 8 8 8.67157 8 9.5C8 10.3284 7.32843 11 6.5 11C5.67157 11 5 10.3284 5 9.5ZM6.5 10C6.77614 10 7 9.77614 7 9.5C7 9.22386 6.77614 9 6.5 9C6.22386 9 6 9.22386 6 9.5C6 9.77614 6.22386 10 6.5 10Z" fill="#ABAFD1"/>
</svg>
