<svg width="24" height="24" viewBox="0 0 24 24" fill="none" xmlns="http://www.w3.org/2000/svg">
<path fill-rule="evenodd" clip-rule="evenodd" d="M6.24275 0.468716C7.80615 0.121262 9.71255 0 12 0C14.2874 0 16.1938 0.121262 17.7573 0.468716C19.332 0.818693 20.6194 1.41131 21.604 2.39596C22.5887 3.3806 23.1813 4.66799 23.5313 6.24275C23.8787 7.80615 24 9.71255 24 12C24 14.2874 23.8787 16.1938 23.5313 17.7573C23.1813 19.332 22.5887 20.6194 21.604 21.604C20.6194 22.5887 19.332 23.1813 17.7573 23.5313C16.1938 23.8787 14.2874 24 12 24C9.71255 24 7.80615 23.8787 6.24275 23.5313C4.66799 23.1813 3.3806 22.5887 2.39596 21.604C1.41132 20.6194 0.818693 19.332 0.468715 17.7573C0.121261 16.1938 0 14.2874 0 12C0 9.71255 0.121261 7.80615 0.468715 6.24275C0.818693 4.66799 1.41132 3.3806 2.39596 2.39596C3.3806 1.41131 4.66799 0.818693 6.24275 0.468716ZM12.6192 5.61631C13.3664 4.83282 14.6105 4.79171 15.4092 5.51957L18.3601 8.20881C19.1718 8.9485 19.2185 10.2031 18.4591 10.9995L12.3808 17.3734C12.0049 17.7676 11.4843 17.9877 10.9438 17.9897L8.17616 18C7.14789 18.0038 6.25927 17.2212 6.18777 16.1683L6.00446 13.4688C5.96721 12.9202 6.1642 12.3853 6.54093 11.9902L12.6192 5.61631ZM14.0633 7.00001L13.1621 7.94507L16.0858 10.5902L16.9777 9.6549L14.0645 7.00001L14.0633 7.00001ZM14.705 12.0381L11.7814 9.39295L8.00146 13.3567L8.18095 16L10.9364 15.9897L14.705 12.0381Z" fill="#ABAFD1"/>
</svg>
