<svg width="26" height="28" viewBox="0 0 26 28" fill="none" xmlns="http://www.w3.org/2000/svg">
<g filter="url(#filter0_d_13_155)">
<path d="M8.3 10.35C7.76815 10.35 7.2415 10.2452 6.75013 10.0417C6.25876 9.83818 5.81229 9.53986 5.43622 9.16378C5.06014 8.78771 4.76182 8.34124 4.55829 7.84987C4.35476 7.3585 4.25 6.83185 4.25 6.3C4.25 5.76815 4.35476 5.2415 4.55829 4.75013C4.76182 4.25876 5.06014 3.81229 5.43622 3.43622C5.81229 3.06014 6.25876 2.76182 6.75013 2.55829C7.2415 2.35476 7.76815 2.25 8.3 2.25C9.37413 2.25 10.4043 2.6767 11.1638 3.43622C11.9233 4.19574 12.35 5.22587 12.35 6.3C12.35 7.37413 11.9233 8.40426 11.1638 9.16378C10.4043 9.9233 9.37413 10.35 8.3 10.35ZM8.3 19.35C7.22587 19.35 6.19574 18.9233 5.43622 18.1638C4.6767 17.4043 4.25 16.3741 4.25 15.3C4.25 14.2259 4.6767 13.1957 5.43622 12.4362C6.19574 11.6767 7.22587 11.25 8.3 11.25C9.37413 11.25 10.4043 11.6767 11.1638 12.4362C11.9233 13.1957 12.35 14.2259 12.35 15.3C12.35 16.3741 11.9233 17.4043 11.1638 18.1638C10.4043 18.9233 9.37413 19.35 8.3 19.35ZM17.3 10.35C16.7681 10.35 16.2415 10.2452 15.7501 10.0417C15.2588 9.83818 14.8123 9.53986 14.4362 9.16378C14.0601 8.78771 13.7618 8.34124 13.5583 7.84987C13.3548 7.3585 13.25 6.83185 13.25 6.3C13.25 5.76815 13.3548 5.2415 13.5583 4.75013C13.7618 4.25876 14.0601 3.81229 14.4362 3.43622C14.8123 3.06014 15.2588 2.76182 15.7501 2.55829C16.2415 2.35476 16.7681 2.25 17.3 2.25C18.3741 2.25 19.4043 2.6767 20.1638 3.43622C20.9233 4.19574 21.35 5.22587 21.35 6.3C21.35 7.37413 20.9233 8.40426 20.1638 9.16378C19.4043 9.9233 18.3741 10.35 17.3 10.35ZM17.3 19.35C16.2259 19.35 15.1957 18.9233 14.4362 18.1638C13.6767 17.4043 13.25 16.3741 13.25 15.3C13.25 14.2259 13.6767 13.1957 14.4362 12.4362C15.1957 11.6767 16.2259 11.25 17.3 11.25C18.3741 11.25 19.4043 11.6767 20.1638 12.4362C20.9233 13.1957 21.35 14.2259 21.35 15.3C21.35 16.3741 20.9233 17.4043 20.1638 18.1638C19.4043 18.9233 18.3741 19.35 17.3 19.35Z" fill="#14E8D8"/>
</g>
<defs>
<filter id="filter0_d_13_155" x="0.25" y="2.25" width="25.1" height="25.1" filterUnits="userSpaceOnUse" color-interpolation-filters="sRGB">
<feFlood flood-opacity="0" result="BackgroundImageFix"/>
<feColorMatrix in="SourceAlpha" type="matrix" values="0 0 0 0 0 0 0 0 0 0 0 0 0 0 0 0 0 0 127 0" result="hardAlpha"/>
<feOffset dy="4"/>
<feGaussianBlur stdDeviation="2"/>
<feComposite in2="hardAlpha" operator="out"/>
<feColorMatrix type="matrix" values="0 0 0 0 0 0 0 0 0 0 0 0 0 0 0 0 0 0 0.25 0"/>
<feBlend mode="normal" in2="BackgroundImageFix" result="effect1_dropShadow_13_155"/>
<feBlend mode="normal" in="SourceGraphic" in2="effect1_dropShadow_13_155" result="shape"/>
</filter>
</defs>
</svg>
