<svg width="24" height="20" viewBox="0 0 24 20" fill="none" xmlns="http://www.w3.org/2000/svg">
<path d="M7.85455 10C4.96258 10 2.61818 7.76142 2.61818 5C2.61818 2.23858 4.96258 0 7.85455 0C10.7465 0 13.0909 2.23858 13.0909 5C13.0909 7.76142 10.7465 10 7.85455 10Z" fill="#ABAFD1"/>
<path d="M7.85455 20C1.38633 20 0 19.2646 0 15.8333C0 12.4021 1.38633 11.6667 7.85455 11.6667C14.3228 11.6667 15.7091 12.4021 15.7091 15.8333C15.7091 19.2646 14.3228 20 7.85455 20Z" fill="#ABAFD1"/>
<path d="M19.2 5.83333C19.2 3.76151 17.4686 1.66667 14.8364 1.66667C14.3544 1.66667 13.9636 2.03976 13.9636 2.5C13.9636 2.96024 14.3544 3.33333 14.8364 3.33333C16.3932 3.33333 17.4545 4.57182 17.4545 5.83333C17.4545 7.09485 16.3932 8.33333 14.8364 8.33333C14.3544 8.33333 13.9636 8.70643 13.9636 9.16667C13.9636 9.6269 14.3544 10 14.8364 10C17.4686 10 19.2 7.90515 19.2 5.83333Z" fill="#ABAFD1"/>
<path d="M16.5818 10.8333C16.0998 10.8333 15.7091 11.2064 15.7091 11.6667C15.7091 12.1269 16.0998 12.5 16.5818 12.5C19.0169 12.5 20.47 12.6154 21.3159 12.9555C21.6986 13.1094 21.9015 13.2895 22.0257 13.4928C22.159 13.711 22.2545 14.0432 22.2545 14.5833C22.2545 15.1203 22.1602 15.4733 22.0315 15.7112C21.9094 15.9367 21.7312 16.1068 21.462 16.2439C20.8596 16.5507 19.8684 16.6667 18.3273 16.6667C17.8453 16.6667 17.4545 17.0398 17.4545 17.5C17.4545 17.9602 17.8453 18.3333 18.3273 18.3333C19.8407 18.3333 21.2495 18.241 22.2834 17.7145C22.8324 17.4349 23.2815 17.032 23.5822 16.4763C23.8762 15.9329 24 15.2963 24 14.5833C24 13.8734 23.8774 13.2161 23.5334 12.653C23.1803 12.0751 22.6469 11.6823 21.9932 11.4195C20.7664 10.9262 18.9467 10.8333 16.5818 10.8333Z" fill="#ABAFD1"/>
</svg>
