<svg width="24" height="24" viewBox="0 0 24 24" fill="none" xmlns="http://www.w3.org/2000/svg">
<path d="M9.81835 0.316101C8.98733 0.949682 8.86421 1.58327 8.89499 5.18865C8.91038 7.01397 8.86421 8.44707 8.78726 8.40181C8.71032 8.35656 8.61798 7.34584 8.55643 6.16919C8.41792 3.45384 8.23325 2.3677 7.75618 1.56818C7.29451 0.798828 6.63277 0.527294 5.7248 0.753574C4.30899 1.13071 4.04737 2.06599 4.37055 5.58087C4.70911 9.23151 4.7245 9.38236 4.53983 9.32202C4.46288 9.29185 4.37055 9.00523 4.33977 8.67335C4.13971 5.73172 3.55492 4.16285 2.50845 3.77063C1.92366 3.55944 0.907966 3.84606 0.430899 4.38913C0.061557 4.78135 0 4.97745 0 5.79206C0 6.30496 0.0769463 7.13465 0.153893 7.63246C0.246228 8.13028 0.41551 10.2271 0.523235 12.3089C0.784852 16.6686 1.0003 17.815 1.92366 19.7158C2.44689 20.7868 2.80084 21.2696 3.47797 21.873C5.03229 23.2759 6.95594 24 9.07966 24C11.8036 24 13.4348 23.1854 16.3896 20.3644C18.621 18.2374 19.3905 17.7245 21.2372 17.1362C22.4529 16.7591 23.484 16.216 23.761 15.8238C24.115 15.326 24.0688 14.3152 23.6687 13.8174C22.6838 12.5955 19.8368 12.7313 17.4822 14.1191C16.9897 14.4058 16.5434 14.632 16.5127 14.6019C16.4819 14.5717 16.5281 13.9079 16.6204 13.1235C17.2975 7.07431 17.5591 3.77063 17.3899 3.19739C17.1282 2.21685 16.6512 1.79446 15.7586 1.71903C15.0507 1.64361 14.9276 1.68886 14.4197 2.11125C14.0812 2.41296 13.7734 2.86551 13.6349 3.30299C13.3733 4.07234 13.0809 6.3653 13.0809 7.73806C13.0809 8.22079 13.0193 8.61301 12.927 8.61301C12.8346 8.61301 12.7731 7.42127 12.7731 5.32442C12.7731 1.7492 12.6654 1.10054 12.0036 0.436783C11.4496 -0.0912018 10.4185 -0.151543 9.81835 0.316101ZM11.4342 0.60272C12.1421 0.874256 12.3114 1.79446 12.3114 5.30933V8.43198L12.6961 8.67335C12.927 8.8242 13.0809 8.85437 13.0809 8.76386C13.0809 8.67335 13.1578 8.64318 13.2348 8.68843C13.3271 8.73369 13.3887 8.76386 13.3887 8.73369C13.4194 8.47724 13.7118 5.71663 13.758 5.36967C13.8657 4.53998 14.2197 3.1823 14.3428 3.1823C14.4197 3.1823 14.4659 3.10688 14.4659 3.00128C14.4659 2.62415 15.1276 2.12634 15.6355 2.12634C16.3896 2.12634 16.8205 2.56381 16.9128 3.42367C17.0359 4.35896 16.8051 7.25533 16.2357 12.0826C16.0202 13.9985 16.0202 14.4661 16.2357 14.5566C16.3588 14.6019 16.4665 14.7376 16.4665 14.8734C16.4665 15.16 16.5896 15.1449 17.159 14.7829C17.4206 14.632 17.7284 14.4661 17.8515 14.4058C17.9746 14.3605 18.2517 14.2247 18.4671 14.1191C18.6826 14.0135 19.2827 13.8174 19.7906 13.6817C21.9605 13.1235 23.5456 13.6062 23.5456 14.8131C23.5456 15.3712 23.1301 15.7483 22.0836 16.1406C19.2827 17.1965 17.8208 18.1167 16.3896 19.6856C14.6506 21.6316 12.65 22.8837 10.7725 23.2457C7.03289 23.9397 3.90887 22.4613 2.41611 19.2934C1.44659 17.1965 1.2927 16.4423 1.1388 12.7615C1.09264 11.5999 0.984912 9.89526 0.907966 8.99014C0.815631 8.06994 0.707906 6.89329 0.661738 6.38039C0.600181 5.62612 0.646349 5.30933 0.861798 4.90203C1.35425 4.02708 2.36995 3.93657 2.93935 4.721C3.33947 5.26407 3.83192 7.1799 3.84731 8.22079C3.84731 8.77895 3.92426 9.02031 4.18588 9.24659C4.37055 9.39744 4.586 9.50304 4.67833 9.47287C4.90917 9.39744 5.04768 8.71861 5.00151 7.904C4.97073 7.51178 4.92456 6.09377 4.90917 4.76626C4.863 1.67378 5.04768 1.22122 6.37115 1.22122C6.97133 1.22122 7.29451 1.52292 7.61768 2.42804C7.86391 3.10688 8.15631 5.76189 8.15631 7.36093C8.15631 8.08502 8.20247 8.3113 8.37175 8.3113C8.49487 8.3113 8.61798 8.40181 8.66415 8.49233C8.71032 8.64318 8.80265 8.61301 9.0181 8.43198C9.26433 8.19062 9.29511 7.85874 9.32589 5.67138C9.37206 1.26647 9.89529 0.02948 11.4342 0.60272Z" fill="#ABAFD1"/>
<path d="M11.4342 0.60272C12.1421 0.874256 12.3114 1.79446 12.3114 5.30933V8.43198L12.6961 8.67335C12.927 8.8242 13.0809 8.85437 13.0809 8.76386C13.0809 8.67335 13.1578 8.64318 13.2348 8.68843C13.3271 8.73369 13.3887 8.76386 13.3887 8.73369C13.4194 8.47724 13.7118 5.71663 13.758 5.36967C13.8657 4.53998 14.2197 3.1823 14.3428 3.1823C14.4197 3.1823 14.4659 3.10688 14.4659 3.00128C14.4659 2.62415 15.1276 2.12634 15.6355 2.12634C16.3896 2.12634 16.8205 2.56381 16.9128 3.42367C17.0359 4.35896 16.8051 7.25533 16.2357 12.0826C16.0202 13.9985 16.0202 14.4661 16.2357 14.5566C16.3588 14.6019 16.4665 14.7376 16.4665 14.8734C16.4665 15.16 16.5896 15.1449 17.159 14.7829C17.4206 14.632 17.7284 14.4661 17.8515 14.4058C17.9746 14.3605 18.2517 14.2247 18.4671 14.1191C18.6826 14.0135 19.2827 13.8174 19.7906 13.6817C21.9605 13.1235 23.5456 13.6062 23.5456 14.8131C23.5456 15.3712 23.1301 15.7483 22.0836 16.1406C19.2827 17.1965 17.8208 18.1167 16.3896 19.6856C14.6506 21.6316 12.65 22.8837 10.7725 23.2457C7.03289 23.9397 3.90887 22.4613 2.41611 19.2934C1.44659 17.1965 1.2927 16.4423 1.1388 12.7615C1.09264 11.5999 0.984912 9.89526 0.907966 8.99014C0.815631 8.06994 0.707906 6.89329 0.661738 6.38039C0.600181 5.62612 0.646349 5.30933 0.861798 4.90203C1.35425 4.02708 2.36995 3.93657 2.93935 4.721C3.33947 5.26407 3.83192 7.1799 3.84731 8.22079C3.84731 8.77895 3.92426 9.02031 4.18588 9.24659C4.37055 9.39744 4.586 9.50304 4.67833 9.47287C4.90917 9.39744 5.04768 8.71861 5.00151 7.904C4.97073 7.51178 4.92456 6.09377 4.90917 4.76626C4.863 1.67378 5.04768 1.22122 6.37115 1.22122C6.97133 1.22122 7.29451 1.52292 7.61768 2.42804C7.86391 3.10688 8.15631 5.76189 8.15631 7.36093C8.15631 8.08502 8.20247 8.3113 8.37175 8.3113C8.49487 8.3113 8.61798 8.40181 8.66415 8.49233C8.71032 8.64318 8.80265 8.61301 9.0181 8.43198C9.26433 8.19062 9.29511 7.85874 9.32589 5.67138C9.37206 1.26647 9.89529 0.02948 11.4342 0.60272Z" fill="#ABAFD1"/>
</svg>
