<svg width="18" height="24" viewBox="0 0 18 24" fill="none" xmlns="http://www.w3.org/2000/svg">
<path d="M3.375 8.72727C3.375 4.98701 3.9375 0 9 0C14.0625 0 14.625 4.98701 14.625 8.72727C14.625 12.4675 14.0625 17.4545 9 17.4545C3.9375 17.4545 3.375 12.4675 3.375 8.72727Z" fill="#ABAFD1"/>
<path d="M1.125 10.9091C0.50368 10.9091 0 11.3975 0 12C0 15.4541 2.45972 20.102 7.87654 20.6697C7.87552 20.6888 7.875 20.708 7.875 20.7273V21.8182H5.625C5.00368 21.8182 4.5 22.3066 4.5 22.9091C4.5 23.5116 5.00368 24 5.625 24H12.375C12.9963 24 13.5 23.5116 13.5 22.9091C13.5 22.3066 12.9963 21.8182 12.375 21.8182H10.125V20.7273C10.125 20.708 10.1245 20.6888 10.1235 20.6697C15.5403 20.102 18 15.4541 18 12C18 11.3975 17.4963 10.9091 16.875 10.9091C16.2537 10.9091 15.75 11.3975 15.75 12C15.75 14.8609 13.5988 18.5455 9 18.5455C4.40123 18.5455 2.25 14.8609 2.25 12C2.25 11.3975 1.74632 10.9091 1.125 10.9091Z" fill="#ABAFD1"/>
</svg>
