<svg width="24" height="24" viewBox="0 0 24 24" fill="none" xmlns="http://www.w3.org/2000/svg">
<path fill-rule="evenodd" clip-rule="evenodd" d="M12 24C2.118 24 0 21.882 0 12C0 2.118 2.118 0 12 0C21.882 0 24 2.118 24 12C24 21.882 21.882 24 12 24ZM7 12C7.55228 12 8 12.4477 8 13V17C8 17.5523 7.55228 18 7 18C6.44772 18 6 17.5523 6 17V13C6 12.4477 6.44772 12 7 12ZM13 7C13 6.44771 12.5523 6 12 6C11.4477 6 11 6.44772 11 7V17C11 17.5523 11.4477 18 12 18C12.5523 18 13 17.5523 13 17V7ZM17 10C17.5523 10 18 10.4477 18 11V17C18 17.5523 17.5523 18 17 18C16.4477 18 16 17.5523 16 17V11C16 10.4477 16.4477 10 17 10Z" fill="#ABAFD1"/>
</svg>
