<svg width="24" height="24" viewBox="0 0 24 24" fill="none" xmlns="http://www.w3.org/2000/svg">
<path fill-rule="evenodd" clip-rule="evenodd" d="M0 12C0 21.882 2.118 24 12 24C21.882 24 24 21.882 24 12C24 2.118 21.882 0 12 0C2.118 0 0 2.118 0 12ZM12 7C12.5523 7 13 7.44772 13 8V14C13 14.5523 12.5523 16 12 16C11.4477 16 11 14.5523 11 14V8C11 7.44772 11.4477 7 12 7ZM12 16C11.4477 16 8 12.9477 8 13.5C8 14.0523 11.4477 18 12 18C12.5523 18 16 14.0523 16 13.5C16 12.9477 12.5523 16 12 16Z" fill="#ABAFD1"/>
</svg>
