<svg width="26" height="24" viewBox="0 0 26 24" fill="none" xmlns="http://www.w3.org/2000/svg">
<path d="M20 17L25 12M25 12L20 7M25 12L11 12" stroke="#ABAFD1" stroke-width="2" stroke-linecap="round" stroke-linejoin="round"/>
<path fill-rule="evenodd" clip-rule="evenodd" d="M16.704 5C17.3713 5 17.869 4.36871 17.6223 3.74865C16.4518 0.806956 14.0185 0 9.29425 0C1.64048 0 5.91278e-05 2.118 5.91278e-05 12C5.91278e-05 21.882 1.64048 24 9.29425 24C14.0185 24 16.4518 23.193 17.6223 20.2514C17.869 19.6313 17.3713 19 16.704 19C16.2515 19 15.8634 19.3009 15.6788 19.714C15.5388 20.0273 15.3879 20.2776 15.2303 20.4811C14.5039 21.4189 13.1179 22 9.29425 22C5.47055 22 4.08457 21.4189 3.35819 20.4811C2.95273 19.9576 2.59125 19.1238 2.34698 17.7047C2.10281 16.2861 2.00006 14.436 2.00006 12C2.00006 9.56404 2.10281 7.71385 2.34698 6.2953C2.59125 4.87622 2.95273 4.04242 3.35819 3.51891C4.08457 2.58107 5.47055 2 9.29425 2C13.1179 2 14.5039 2.58107 15.2303 3.51891C15.3879 3.72237 15.5388 3.97269 15.6788 4.28602C15.8634 4.69912 16.2515 5 16.704 5Z" fill="#ABAFD1"/>
</svg>
