<svg width="26" height="17" viewBox="0 0 26 17" fill="none" xmlns="http://www.w3.org/2000/svg">
<path fill-rule="evenodd" clip-rule="evenodd" d="M9.86207 17C1.74065 17 0 15.4998 0 8.5C0 1.50025 1.74065 0 9.86207 0C15.3032 0 17.8802 0.673404 18.9886 3.22288C20.4695 2.14053 21.8417 1.61087 23.0346 1.71214C23.7628 1.77396 24.386 2.07096 24.851 2.55915C25.3037 3.03449 25.5677 3.64845 25.688 4.30602C26.1024 6.57219 26.1041 10.117 25.6923 12.3801C25.5944 13.1712 25.3583 13.8815 24.9095 14.4146C24.4279 14.9866 23.7589 15.2844 22.9937 15.2994C22.2703 15.3135 21.5062 15.0764 20.7404 14.6894C20.207 14.4198 19.6433 14.0624 19.0529 13.623C17.9814 16.2996 15.4112 17 9.86207 17ZM19.525 11.7875C20.3072 12.4313 20.9959 12.892 21.5839 13.1892C22.2071 13.5042 22.6582 13.6056 22.9568 13.5998C23.2136 13.5947 23.3734 13.5141 23.5081 13.3541C23.6707 13.161 23.838 12.7953 23.9138 12.1627L23.9168 12.1375L23.9214 12.1125C24.302 10.0445 24.3022 6.67928 23.9212 4.59647C23.8423 4.16474 23.6888 3.87555 23.5202 3.69851C23.3638 3.53431 23.1616 3.42972 22.8747 3.40536C22.2469 3.35206 21.12 3.68822 19.4952 5.02684C19.659 5.99814 19.7241 7.14621 19.7241 8.5C19.7241 9.76853 19.667 10.8564 19.525 11.7875Z" fill="#ABAFD1"/>
</svg>
